PathFileType	4	(X/Y/Z)	E:\Qualisys_Data\Carbon_Farble_Plate\Data\Amateur_Runner\S2\T3\S2T3V13_c3d.trc
DataRate	CameraRate	NumFrames	NumMarkers	Units	OrigDataRate	OrigDataStartFrame	OrigNumFrames
200.000000	200.000000	5	39	mm	200.000000	156	312
Frame#	Time	LSHO			RSHO			LICST			RICST			LASIS			LHEEL			RASIS			LTROC			RTROC			SACR			LTH1			LSK4			LTH2			LTH3			RHM5			LSK2			LTH4			RTH1			LTOE			RTH2			RTH3			RTH4			LLEP			RLEP			LSK1			LSK3			RSK1			LHM5			RSK2			LFT1			RSK3			RSK4			LLME			RLME			RTOE			RHEEL			RFT1			RFT2			LFT2			
		X1	Y1	Z1	X2	Y2	Z2	X3	Y3	Z3	X4	Y4	Z4	X5	Y5	Z5	X6	Y6	Z6	X7	Y7	Z7	X8	Y8	Z8	X9	Y9	Z9	X10	Y10	Z10	X11	Y11	Z11	X12	Y12	Z12	X13	Y13	Z13	X14	Y14	Z14	X15	Y15	Z15	X16	Y16	Z16	X17	Y17	Z17	X18	Y18	Z18	X19	Y19	Z19	X20	Y20	Z20	X21	Y21	Z21	X22	Y22	Z22	X23	Y23	Z23	X24	Y24	Z24	X25	Y25	Z25	X26	Y26	Z26	X27	Y27	Z27	X28	Y28	Z28	X29	Y29	Z29	X30	Y30	Z30	X31	Y31	Z31	X32	Y32	Z32	X33	Y33	Z33	X34	Y34	Z34	X35	Y35	Z35	X36	Y36	Z36	X37	Y37	Z37	X38	Y38	Z38	X39	Y39	Z39	

157	0.78	-10.29720783233643	1495.813354492188	-489.3630981445312	-75.72116088867188	1475.514770507812	-186.0634613037109	-104.4771270751953	1038.878540039062	-488.608642578125	-97.82636260986328	1028.422119140625	-190.1782073974609	-53.22528839111328	984.5606079101562	-475.3455810546875	-610.8880615234375	397.0802917480469	-407.1405639648438	-40.04373168945312	982.6618041992188	-219.4925994873047	-198.4606323242188	933.2870483398438	-491.1477966308594	-173.9721527099609	922.2260131835938	-178.6506500244141	-197.1355743408203	1078.512939453125	-342.5228271484375	-148.5895690917969	675.684326171875	-496.4905395507812	-471.4544982910156	468.476806640625	-485.7326049804688	-227.0892944335938	700.5850219726562	-503.1608581542969	-181.3481140136719	578.8052978515625	-483.5283813476562	207.5088348388672	143.2121429443359	-191.4747924804688	-386.802978515625	519.6935424804688	-500.4456787109375	-260.959228515625	607.556640625	-481.8896789550781	31.31326103210449	683.524658203125	-172.6909027099609	-601.6026611328125	146.4273223876953	-429.9239196777344	-45.51949310302734	660.0782470703125	-164.7955017089844	54.80869293212891	588.85693359375	-205.7425537109375	-23.11897659301758	570.191650390625	-193.2107696533203	-248.5110626220703	552.084716796875	-487.2648010253906	17.89713859558105	545.9749145507812	-193.0858306884766	-346.0408325195312	451.8667297363281	-496.9979553222656	-432.4610900878906	400.8314819335938	-489.635498046875	69.89495849609375	433.4746398925781	-191.2321929931641	-637.31005859375	205.9247283935547	-479.2246704101562	-8.38410758972168	421.5988464355469	-179.8570709228516	-628.6197509765625	383.0909729003906	-374.2696838378906	84.68779754638672	332.5976867675781	-200.6823425292969	6.148990154266357	324.1579284667969	-192.0537414550781	-601.5169067382812	338.7442016601562	-463.0745849609375	78.63754272460938	140.3444061279297	-223.7288208007812	263.1138000488281	187.0606384277344	-243.419921875	28.93071746826172	100.4160232543945	-283.9177856445312	53.93986892700195	82.31394958496094	-313.1373291015625	37.87496566772461	72.83679962158203	-264.8993225097656	-644.3264770507812	389.5826110839844	-425.3369140625
158	0.785	5.112293720245361	1492.685424804688	-488.1031188964844	-60.04746627807617	1471.79248046875	-184.5316009521484	-88.665771484375	1035.64306640625	-488.1062622070312	-82.08799743652344	1025.386352539062	-189.7224884033203	-37.18087005615234	981.7935791015624	-474.7242431640625	-594.482666015625	400.9350891113281	-406.1632385253906	-24.44248962402344	979.6397094726562	-218.6978454589844	-181.6670837402344	930.1072387695312	-490.9200439453125	-157.770263671875	918.793701171875	-178.1349029541016	-181.1152954101562	1074.941284179688	-341.7751770019531	-130.6170959472656	672.2462158203125	-497.2348022460938	-453.9011535644531	469.7980041503906	-485.6714782714844	-209.4601287841797	696.3170776367188	-503.3941345214844	-162.5245361328125	574.90283203125	-484.31201171875	220.5710601806641	139.2613067626953	-191.8280181884766	-366.9799194335938	517.7058715820312	-499.7402954101562	-242.7268676757812	603.046142578125	-481.8655090332031	46.94899368286133	680.033203125	-172.0969390869141	-589.1300048828125	150.128662109375	-430.5460815429688	-29.64070510864258	655.8097534179688	-163.9534301757812	71.50260162353516	586.3600463867188	-205.8588562011719	-6.254668712615967	565.6657104492188	-192.8443450927734	-229.1668090820312	547.720458984375	-487.3982849121094	34.22393417358398	542.8903198242188	-193.2546081542969	-328.5252685546875	449.4345703125	-496.0001525878906	-415.67724609375	400.40234375	-488.8819885253906	85.33936309814453	429.3806457519531	-191.3306274414062	-623.1033935546875	210.684814453125	-479.5580749511719	6.62968635559082	418.18603515625	-179.8030242919922	-612.4002075195312	386.6558227539062	-372.5223388671875	99.24201202392578	328.6859130859375	-201.1136627197266	20.74399185180664	320.7119140625	-191.9637145996094	-585.8648681640625	342.8084411621094	-461.9881286621094	91.89434051513672	136.6379089355469	-224.2862548828125	276.1228942871094	182.8050994873047	-243.8387908935547	42.18457794189453	96.61831665039062	-284.7653198242188	67.16010284423828	78.48819732666016	-313.7428588867188	51.12695693969727	69.2430191040039	-265.3316040039062	-627.2686157226562	394.2471313476562	-423.6473388671875
159	0.79	20.38482284545898	1489.34521484375	-486.9358520507812	-44.71628952026367	1467.773559570312	-182.9467010498047	-72.67395782470703	1032.266357421875	-487.4142761230469	-66.36127471923828	1021.721618652344	-188.8278350830078	-21.12223625183105	978.6857299804688	-474.0688781738281	-577.315185546875	403.9755249023438	-404.3439331054688	-8.304444313049316	976.446044921875	-218.092529296875	-165.38037109375	926.4012451171876	-490.6270141601562	-141.8250274658203	914.8779907226562	-177.254150390625	-165.1117401123047	1071.400756835938	-341.1814270019531	-112.7264633178711	669.01220703125	-497.4089660644531	-434.7985534667969	469.7760925292969	-484.6510620117188	-191.4333648681641	691.3658447265625	-503.0856628417969	-143.342529296875	570.690673828125	-484.4432678222656	232.7139434814453	135.0600433349609	-192.4697570800781	-347.0318298339844	515.8641357421875	-499.2953491210938	-223.8528289794922	598.0485229492188	-481.4015197753906	62.53060150146484	676.6480712890625	-172.8507995605469	-576.09326171875	153.9176635742188	-431.6111450195312	-13.82375240325928	652.3046875	-163.6611938476562	87.53913116455078	583.2977294921875	-206.5514526367188	9.614319801330566	562.1468505859375	-192.8283233642578	-209.5825653076172	543.0504760742188	-488.0290832519531	49.96649932861328	538.7333374023438	-193.0977172851562	-310.0540466308594	446.6606750488281	-496.3346557617188	-398.7759704589844	399.325439453125	-488.3423767089844	100.2737426757812	425.4623413085938	-191.5338897705078	-609.7127685546875	215.8317413330078	-479.4221801757812	21.87418174743652	414.4514465332031	-179.6018829345703	-595.4696044921875	390.0258178710938	-370.8499755859375	113.5411529541016	324.0268249511719	-201.7619934082031	34.81279373168945	316.6954345703125	-192.5083770751953	-569.6012573242188	346.6483764648438	-460.4523315429688	104.2564544677734	132.2155456542969	-225.2136535644531	288.2632141113281	177.9437713623047	-244.3074188232422	54.21113204956055	92.67488861083984	-285.4133911132812	79.05387115478516	74.5484390258789	-314.4657897949219	62.96784973144531	65.53070068359375	-266.1259765625	-610.1807250976562	398.4073486328125	-421.9396362304688
160	0.795	36.11541366577148	1485.651489257812	-485.5132446289062	-28.9725284576416	1463.42578125	-181.8897552490234	-56.72718048095703	1028.58837890625	-486.9059448242188	-51.08468627929688	1018.0546875	-188.1899261474609	-4.781968593597412	975.4287719726562	-473.32568359375	-558.4005737304688	406.8351440429688	-403.6355285644531	7.491953372955322	973.0794677734376	-217.1793518066406	-148.6300811767578	922.12890625	-490.10400390625	-125.7809677124023	911.1759033203124	-176.479248046875	-149.0626525878906	1067.461669921875	-340.6778259277344	-94.35765075683594	664.5429077148438	-498.1111145019531	-415.4102478027344	468.6405639648438	-484.9603576660156	-173.9923553466797	686.466064453125	-503.3351135253906	-124.0612716674805	565.7024536132812	-484.8759155273438	244.0834808349609	129.7549285888672	-192.9753570556641	-326.7139587402344	513.4166870117188	-498.9308776855469	-204.6364593505859	592.1463623046875	-480.9622192382812	78.39034271240234	673.699462890625	-172.384033203125	-562.4368896484375	157.56982421875	-431.8124084472656	2.176969528198242	649.2384033203125	-164.5128784179688	103.6501312255859	580.1863403320312	-206.7244873046875	26.00141143798828	559.0374145507812	-192.8773498535156	-189.7919769287109	537.8516235351562	-488.7482299804688	66.12055969238281	535.4247436523438	-193.4575805664062	-291.26708984375	443.41162109375	-495.7994689941406	-380.9667358398438	398.4778137207031	-487.7402038574219	115.1382598876953	420.7676696777344	-192.1243896484375	-595.2199096679688	220.535888671875	-479.5649719238281	36.70732498168945	410.7511596679688	-179.7018737792969	-577.8367309570312	393.2778015136719	-369.4547729492188	127.3686065673828	319.3466491699219	-202.5589141845703	48.65764617919922	313.3187866210938	-192.1139831542969	-553.3544311523438	350.42919921875	-459.5379638671875	115.7101211547852	128.1275329589844	-225.7615509033203	299.8848266601562	173.0051422119141	-244.8809509277344	65.74160766601562	88.46269226074219	-285.7386474609375	90.12590026855467	70.38365936279297	-314.6412353515625	74.25790405273438	61.23270034790039	-266.3148803710938	-593.0086059570312	402.2783203125	-420.1168823242188
161	0.8	51.60330963134766	1481.958251953125	-484.4485778808594	-13.38754940032959	1458.854370117188	-180.4760589599609	-40.94022750854492	1024.78955078125	-486.2796020507812	-35.32630920410156	1014.203674316406	-187.68017578125	11.24807167053223	971.5048828125	-472.3056030273438	-540.4225463867188	409.9573364257812	-402.0839233398438	23.23368263244629	969.4102172851562	-216.2541351318359	-132.1838226318359	917.8080444335938	-490.1885986328125	-109.8520126342773	907.0221557617188	-175.8969421386719	-133.5796966552734	1063.213745117188	-339.6858215332031	-76.64521789550781	659.9697875976562	-498.5046081542969	-395.5991821289062	468.3826904296875	-484.281005859375	-155.6853332519531	681.0095825195312	-503.2288818359375	-104.5292129516602	560.9464721679688	-486.0952453613281	255.1412353515625	124.3828048706055	-194.0225677490234	-305.8930969238281	510.5763854980469	-498.5117797851562	-185.0922088623047	586.56884765625	-480.8379821777344	94.47965240478516	670.1497802734375	-173.1035308837891	-548.1472778320312	160.7041168212891	-432.6627807617188	18.20653533935547	646.2810668945312	-165.4316253662109	119.6067276000977	576.9273681640625	-207.1089324951172	41.98777770996094	555.9290771484375	-193.3107604980469	-169.8059387207031	532.0355224609375	-488.7769775390625	82.2776107788086	531.7700805664062	-194.0887451171875	-272.4065551757812	439.634033203125	-495.9490966796875	-363.0625	396.9607543945312	-487.1145935058594	129.8294525146484	416.1873779296875	-192.39453125	-579.96875	224.6412658691406	-479.2011413574219	51.11542892456055	406.9227294921875	-179.9507904052734	-560.0098266601562	396.5031127929688	-367.6693420410156	140.4408111572266	314.4854125976562	-203.1172637939453	61.82596969604492	308.9877319335938	-192.6666870117188	-536.3678588867188	353.6737976074219	-458.259521484375	126.8557357788086	123.3647003173828	-225.9303283691406	310.8731384277344	167.2281646728516	-245.6543273925781	76.3460693359375	83.7282485961914	-286.1611022949219	100.3939743041992	65.70488739013672	-315.1831970214844	82.71708679199219	56.3903923034668	-267.905029296875	-574.6207275390625	405.9611511230469	-418.1085815429688
